<svg width="692" height="73" viewBox="0 0 692 73" fill="none" xmlns="http://www.w3.org/2000/svg">
<path d="M675.305 0.0498962H678.01C685.383 0.0498962 689.78 2.12033 691.203 6.2612C691.683 7.62485 691.924 9.18807 691.924 10.9509V34H675.305V0.0498962ZM653.488 0.0498962H669.656V34H653.488V0.0498962Z" fill="#065DDF"/>
<path d="M625.979 0.0498962H628.323C635.756 0.0498962 640.664 2.80216 643.048 8.30668C644.01 10.5684 644.49 13.171 644.49 16.1145C644.49 21.0702 643.339 25.1529 641.035 28.3624C638.31 32.1208 634.073 34 628.323 34H625.979V0.0498962ZM618.736 34C611.344 34 606.445 30.8902 604.041 24.6706C603.06 22.1428 602.569 19.2908 602.569 16.1145C602.569 9.6454 604.732 5.08047 609.06 2.41967C611.604 0.839821 614.83 0.0498962 618.736 0.0498962H621.08V34H618.736Z" fill="#065DDF"/>
<path d="M574.999 0.0498962H593.541V17.1372L574.999 0.0498962ZM555.376 10.0778H555.195C555.195 6.652 556.317 4.12424 558.561 2.4945C560.805 0.864765 564.261 0.0498962 568.929 0.0498962L593.541 24.8452C593.541 28.1379 592.469 30.4911 590.326 31.9046C588.242 33.2849 584.836 33.9751 580.108 33.9751L555.376 10.0778ZM555.286 16.8129L573.136 34H555.286V16.8129Z" fill="#065DDF"/>
<path d="M527.776 0.0498962H530.481C537.854 0.0498962 542.251 2.12033 543.674 6.2612C544.155 7.62485 544.395 9.18807 544.395 10.9509V34H527.776V0.0498962ZM505.959 0.0498962H522.127V34H505.959V0.0498962Z" fill="#065DDF"/>
<path d="M456.903 0.0498962H473.071V17.0374H478.931V0.0498962H495.099V33.9501H478.931V20.8041H473.071V33.9501H456.903V0.0498962Z" fill="#065DDF"/>
<path d="M429.274 0.0498962H431.618C439.05 0.0498962 443.959 2.80216 446.343 8.30668C447.305 10.5684 447.785 13.171 447.785 16.1145C447.785 21.0702 446.633 25.1529 444.329 28.3624C441.605 32.1208 437.368 34 431.618 34H429.274V0.0498962ZM422.031 34C414.639 34 409.74 30.8902 407.336 24.6706C406.354 22.1428 405.864 19.2908 405.864 16.1145C405.864 9.6454 408.027 5.08047 412.355 2.41967C414.899 0.839821 418.125 0.0498962 422.031 0.0498962H424.375V34H422.031Z" fill="#065DDF"/>
<path d="M380.939 0.0498962H397.557V23.0991C397.557 26.7743 396.546 29.4767 394.522 31.2062C392.298 33.0687 388.672 34 383.643 34H380.939V0.0498962ZM357.769 22.3507H375.95V34H373.997C368.247 34 364.11 33.235 361.586 31.7051C359.041 30.1917 357.769 27.6723 357.769 24.1467V22.3507Z" fill="#065DDF"/>
<path d="M296.921 0.0498962H313.599V9.4791H310.474C305.045 9.4791 301.338 8.77232 299.355 7.35877C297.732 6.19468 296.921 4.31549 296.921 1.72121V0.0498962ZM275.554 0.0498962H291.722V13.7197H303.773V20.2304H291.722V33.9501H275.554V0.0498962ZM296.891 31.5803C296.891 28.1379 299.295 25.8014 304.103 24.5708C305.946 24.1052 308.32 23.8723 311.225 23.8723H313.599V34H296.891V31.5803Z" fill="#065DDF"/>
<path d="M247.504 0.0498962H263.672V34H247.504V0.0498962Z" fill="#065DDF"/>
<path d="M219.184 0.0498962H221.888C229.261 0.0498962 233.658 2.12033 235.081 6.2612C235.562 7.62485 235.802 9.18807 235.802 10.9509V34H219.184V0.0498962ZM197.366 0.0498962H213.534V34H197.366V0.0498962Z" fill="#065DDF"/>
<path d="M186.235 10.6016C186.235 15.6239 183.591 18.9249 178.302 20.5048C181.267 21.4194 183.5 22.9078 185.003 24.9699C186.305 26.7992 186.956 28.9279 186.956 31.3558V34H169.046V0H170.608C175.897 0 179.794 0.831499 182.298 2.4945C184.923 4.24065 186.235 6.94302 186.235 10.6016ZM147.889 0.04989H164.057V34H147.889V0.04989Z" fill="#065DDF"/>
<path d="M120.681 0.0249329H137.389V34H120.681V0.0249329ZM99.1038 0.0249329H115.722V34H113.018C105.645 34 101.248 31.9212 99.8251 27.7637C99.3443 26.4167 99.1038 24.8618 99.1038 23.099V0.0249329Z" fill="#065DDF"/>
<path d="M71.5045 0.0498962H73.8486C81.2813 0.0498962 86.1897 2.80216 88.5738 8.30668C89.5354 10.5684 90.0163 13.171 90.0163 16.1145C90.0163 21.0702 88.8643 25.1529 86.5603 28.3624C83.8357 32.1208 79.5984 34 73.8486 34H71.5045V0.0498962ZM64.2621 34C56.8695 34 51.9711 30.8902 49.5669 24.6706C48.5853 22.1428 48.0944 19.2908 48.0944 16.1145C48.0944 9.6454 50.2581 5.08047 54.5855 2.41967C57.1299 0.839821 60.3554 0.0498962 64.2621 0.0498962H66.6061V34H64.2621Z" fill="#065DDF"/>
<path d="M23.1697 0.0498962H39.7882V23.0991C39.7882 26.7743 38.7765 29.4767 36.753 31.2062C34.5292 33.0687 30.903 34 25.8743 34H23.1697V0.0498962ZM0 22.3507H18.1812V34H16.2278C10.478 34 6.34087 33.235 3.81654 31.7051C1.27218 30.1917 0 27.6723 0 24.1467V22.3507Z" fill="#065DDF"/>
<path d="M505.216 61.9759C505.216 60.5662 505.542 59.2505 506.196 58.0288C506.849 56.7883 507.759 55.6981 508.926 54.7584C510.092 53.7998 511.434 53.0573 512.951 52.5311C514.491 51.986 516.136 51.7134 517.886 51.7134C519.636 51.7134 521.281 51.986 522.821 52.5311C524.361 53.0573 525.714 53.7998 526.881 54.7584C528.048 55.6981 528.958 56.7883 529.611 58.0288C530.288 59.2505 530.626 60.5662 530.626 61.9759C530.626 63.3856 530.288 64.7107 529.611 65.9512C528.958 67.1729 528.048 68.2537 526.881 69.1935C525.714 70.1332 524.361 70.8663 522.821 71.3926C521.281 71.9188 519.636 72.182 517.886 72.182C516.136 72.182 514.491 71.9282 512.951 71.4207C511.434 70.9133 510.092 70.199 508.926 69.278C507.759 68.357 506.849 67.2763 506.196 66.0358C505.542 64.7953 505.216 63.442 505.216 61.9759ZM506.966 62.0041C506.966 63.2258 507.246 64.3724 507.806 65.4437C508.366 66.5151 509.147 67.4549 510.151 68.2631C511.154 69.0713 512.309 69.7103 513.616 70.1802C514.946 70.6313 516.357 70.8569 517.851 70.8569C519.391 70.8569 520.826 70.6313 522.156 70.1802C523.486 69.7103 524.652 69.0713 525.656 68.2631C526.659 67.4549 527.441 66.5151 528.001 65.4437C528.584 64.3724 528.876 63.2164 528.876 61.9759C528.876 60.7542 528.584 59.6076 528.001 58.5363C527.441 57.4461 526.659 56.497 525.656 55.6887C524.652 54.8617 523.486 54.2133 522.156 53.7434C520.826 53.2735 519.402 53.0385 517.886 53.0385C516.346 53.0385 514.911 53.2829 513.581 53.7716C512.251 54.2415 511.084 54.8899 510.081 55.7169C509.101 56.5439 508.331 57.5025 507.771 58.5927C507.234 59.664 506.966 60.8012 506.966 62.0041Z" fill="black"/>
<path d="M486.652 51.939H488.367V71.9564H486.652V51.939Z" fill="black"/>
<path d="M450.381 71.9564V51.939H456.506C458.909 51.939 460.951 52.2491 462.631 52.8694C464.334 53.4708 465.711 54.2697 466.761 55.2658C467.811 56.262 468.581 57.3522 469.071 58.5363C469.561 59.7204 469.806 60.8951 469.806 62.0605C469.806 63.5829 469.479 64.955 468.826 66.1767C468.173 67.3797 467.274 68.4134 466.131 69.278C465.011 70.1426 463.728 70.8099 462.281 71.2798C460.834 71.7309 459.306 71.9564 457.696 71.9564H450.381ZM452.096 70.6313H457.241C458.734 70.6313 460.134 70.434 461.441 70.0393C462.748 69.6446 463.891 69.0713 464.871 68.3195C465.874 67.5676 466.656 66.6654 467.216 65.6129C467.776 64.5415 468.056 63.3292 468.056 61.9759C468.056 60.8294 467.811 59.7392 467.321 58.7054C466.854 57.6529 466.143 56.7225 465.186 55.9143C464.229 55.1061 463.051 54.467 461.651 53.9971C460.251 53.5272 458.618 53.2923 456.751 53.2923H452.096V70.6313Z" fill="black"/>
<path d="M416.71 65.19C416.71 66.3553 417.001 67.3609 417.585 68.2067C418.191 69.0525 419.008 69.7103 420.035 70.1802C421.061 70.6313 422.228 70.8569 423.535 70.8569C424.865 70.8569 426.043 70.6313 427.07 70.1802C428.12 69.7103 428.936 69.0525 429.52 68.2067C430.126 67.3609 430.43 66.3553 430.43 65.19V51.939H432.11V65.2746C432.11 66.7218 431.725 67.9623 430.955 68.9961C430.208 70.0299 429.181 70.8193 427.875 71.3644C426.591 71.9094 425.145 72.182 423.535 72.182C421.925 72.182 420.466 71.9094 419.16 71.3644C417.876 70.8193 416.861 70.0299 416.115 68.9961C415.368 67.9623 414.995 66.7218 414.995 65.2746V51.939H416.71V65.19Z" fill="black"/>
<path d="M382.439 51.939H398.714V53.2641H391.399V71.9564H389.684V53.2641H382.439V51.939Z" fill="black"/>
<path d="M366.364 54.1945C365.641 53.9126 364.754 53.6494 363.704 53.4051C362.654 53.1607 361.604 53.0386 360.554 53.0386C358.921 53.0386 357.614 53.3675 356.634 54.0253C355.654 54.6832 355.164 55.5102 355.164 56.5064C355.164 57.2582 355.444 57.8878 356.004 58.3953C356.564 58.884 357.299 59.3069 358.209 59.664C359.119 60.0024 360.088 60.3313 361.114 60.6508C361.931 60.8952 362.736 61.1677 363.529 61.4684C364.346 61.7692 365.081 62.1357 365.734 62.568C366.388 63.0003 366.901 63.536 367.274 64.175C367.671 64.8141 367.869 65.6035 367.869 66.5433C367.869 67.6522 367.543 68.639 366.889 69.5036C366.236 70.3494 365.326 71.0073 364.159 71.4771C362.993 71.947 361.639 72.182 360.099 72.182C358.863 72.182 357.731 72.0598 356.704 71.8155C355.701 71.5711 354.814 71.2892 354.044 70.9697C353.298 70.6313 352.703 70.3494 352.259 70.1239L353.064 68.9961C353.578 69.2968 354.196 69.5976 354.919 69.8983C355.666 70.199 356.471 70.4528 357.334 70.6595C358.198 70.8663 359.061 70.9697 359.924 70.9697C360.928 70.9697 361.896 70.8099 362.829 70.4904C363.786 70.1708 364.568 69.6916 365.174 69.0525C365.804 68.3946 366.119 67.5676 366.119 66.5715C366.119 65.6129 365.828 64.8423 365.244 64.2596C364.661 63.6581 363.914 63.1694 363.004 62.7935C362.094 62.4176 361.126 62.0793 360.099 61.7786C359.306 61.5342 358.513 61.2805 357.719 61.0173C356.926 60.7354 356.203 60.4065 355.549 60.0306C354.896 59.6358 354.371 59.166 353.974 58.6209C353.601 58.0758 353.414 57.418 353.414 56.6473C353.414 55.6888 353.718 54.8523 354.324 54.1381C354.931 53.4239 355.748 52.8694 356.774 52.4747C357.824 52.0612 359.014 51.845 360.344 51.8262C361.511 51.8262 362.689 51.9484 363.879 52.1928C365.093 52.4371 366.143 52.7472 367.029 53.1231L366.364 54.1945Z" fill="black"/>
<path d="M301.118 51.939H302.833V70.6313H316.448V71.9564H301.118V51.939Z" fill="black"/>
<path d="M263.736 71.9564L274.236 51.065H274.376L284.876 71.9564H282.951L273.816 53.2641L275.006 52.7284L265.451 71.9564H263.736ZM268.811 64.034H279.836L280.326 65.3309H268.391L268.811 64.034Z" fill="black"/>
<path d="M249.057 70.6313C248.52 70.8945 247.902 71.1482 247.202 71.3926C246.502 71.6369 245.732 71.8249 244.892 71.9564C244.052 72.1068 243.142 72.182 242.162 72.182C240.272 72.182 238.557 71.9188 237.017 71.3926C235.477 70.8475 234.158 70.1144 233.062 69.1935C231.965 68.2537 231.114 67.1823 230.507 65.9794C229.924 64.7577 229.632 63.4608 229.632 62.0887C229.632 60.6226 229.947 59.2599 230.577 58.0006C231.207 56.7413 232.094 55.6418 233.237 54.702C234.38 53.7622 235.71 53.0291 237.227 52.5029C238.744 51.9766 240.389 51.7134 242.162 51.7134C243.469 51.7134 244.694 51.8544 245.837 52.1364C246.98 52.4183 248.019 52.7848 248.952 53.2359L248.217 54.5046C247.4 54.0911 246.479 53.7434 245.452 53.4614C244.425 53.1795 243.34 53.0385 242.197 53.0385C240.727 53.0385 239.338 53.2735 238.032 53.7434C236.725 54.1945 235.57 54.8335 234.567 55.6605C233.587 56.4688 232.817 57.4179 232.257 58.5081C231.697 59.5982 231.417 60.773 231.417 62.0323C231.417 63.2352 231.662 64.3724 232.152 65.4437C232.665 66.5151 233.389 67.4549 234.322 68.2631C235.279 69.0713 236.422 69.7103 237.752 70.1802C239.082 70.6313 240.564 70.8569 242.197 70.8569C243.41 70.8569 244.519 70.7253 245.522 70.4622C246.549 70.1802 247.458 69.8325 248.252 69.419L249.057 70.6313Z" fill="black"/>
<path d="M188.951 61.9759C188.951 60.5662 189.278 59.2505 189.931 58.0288C190.585 56.7883 191.494 55.6981 192.661 54.7584C193.828 53.7998 195.17 53.0573 196.686 52.5311C198.226 51.986 199.871 51.7134 201.621 51.7134C203.371 51.7134 205.016 51.986 206.556 52.5311C208.096 53.0573 209.45 53.7998 210.616 54.7584C211.783 55.6981 212.693 56.7883 213.346 58.0288C214.023 59.2505 214.361 60.5662 214.361 61.9759C214.361 63.3856 214.023 64.7107 213.346 65.9512C212.693 67.1729 211.783 68.2537 210.616 69.1935C209.45 70.1332 208.096 70.8663 206.556 71.3926C205.016 71.9188 203.371 72.182 201.621 72.182C199.871 72.182 198.226 71.9282 196.686 71.4207C195.17 70.9133 193.828 70.199 192.661 69.278C191.494 68.357 190.585 67.2763 189.931 66.0358C189.278 64.7953 188.951 63.442 188.951 61.9759ZM190.701 62.0041C190.701 63.2258 190.981 64.3724 191.541 65.4437C192.101 66.5151 192.883 67.4549 193.886 68.2631C194.89 69.0713 196.044 69.7103 197.351 70.1802C198.681 70.6313 200.093 70.8569 201.586 70.8569C203.126 70.8569 204.561 70.6313 205.891 70.1802C207.221 69.7103 208.388 69.0713 209.391 68.2631C210.395 67.4549 211.176 66.5151 211.736 65.4437C212.32 64.3724 212.611 63.2164 212.611 61.9759C212.611 60.7542 212.32 59.6076 211.736 58.5363C211.176 57.4461 210.395 56.497 209.391 55.6887C208.388 54.8617 207.221 54.2133 205.891 53.7434C204.561 53.2735 203.138 53.0385 201.621 53.0385C200.081 53.0385 198.646 53.2829 197.316 53.7716C195.986 54.2415 194.819 54.8899 193.816 55.7169C192.836 56.5439 192.066 57.5025 191.506 58.5927C190.969 59.664 190.701 60.8012 190.701 62.0041Z" fill="black"/>
<path d="M156.71 51.939L165.88 70.6877L164.935 70.5749L173.895 51.939H175.855L165.285 72.8868L154.715 51.939H156.71Z" fill="black"/>
</svg>
